<svg width="28" height="19" viewBox="0 0 28 19" fill="none" xmlns="http://www.w3.org/2000/svg">
<path d="M23.3326 0.166626H11.1059C10.0454 0.16756 9.02869 0.5896 8.27927 1.33996L1.0526 8.55329C0.92763 8.67724 0.828437 8.82471 0.760746 8.98719C0.693054 9.14967 0.658203 9.32394 0.658203 9.49996C0.658203 9.67598 0.693054 9.85025 0.760746 10.0127C0.828437 10.1752 0.92763 10.3227 1.0526 10.4466L8.27927 17.66C9.02869 18.4103 10.0454 18.8324 11.1059 18.8333H23.3326C24.3935 18.8333 25.4109 18.4119 26.161 17.6617C26.9112 16.9116 27.3326 15.8942 27.3326 14.8333V4.16663C27.3326 3.10576 26.9112 2.08834 26.161 1.3382C25.4109 0.588053 24.3935 0.166626 23.3326 0.166626ZM24.6659 14.8333C24.6659 15.1869 24.5255 15.5261 24.2754 15.7761C24.0254 16.0262 23.6862 16.1666 23.3326 16.1666H11.1059C10.7529 16.1617 10.4148 16.0236 10.1593 15.78L3.87927 9.49996L10.1593 3.21996C10.4148 2.97631 10.7529 2.8382 11.1059 2.83329H23.3326C23.6862 2.83329 24.0254 2.97377 24.2754 3.22382C24.5255 3.47387 24.6659 3.813 24.6659 4.16663V14.8333ZM20.2793 5.88663C20.1553 5.76165 20.0078 5.66246 19.8454 5.59477C19.6829 5.52708 19.5086 5.49223 19.3326 5.49223C19.1566 5.49223 18.9823 5.52708 18.8198 5.59477C18.6574 5.66246 18.5099 5.76165 18.3859 5.88663L16.6659 7.61996L14.9459 5.88663C14.6949 5.63555 14.3543 5.4945 13.9993 5.4945C13.6442 5.4945 13.3037 5.63555 13.0526 5.88663C12.8015 6.1377 12.6605 6.47822 12.6605 6.83329C12.6605 7.18836 12.8015 7.52889 13.0526 7.77996L14.7859 9.49996L13.0526 11.22C12.9276 11.3439 12.8284 11.4914 12.7607 11.6539C12.6931 11.8163 12.6582 11.9906 12.6582 12.1666C12.6582 12.3426 12.6931 12.5169 12.7607 12.6794C12.8284 12.8419 12.9276 12.9893 13.0526 13.1133C13.1766 13.2383 13.324 13.3375 13.4865 13.4051C13.649 13.4728 13.8233 13.5077 13.9993 13.5077C14.1753 13.5077 14.3496 13.4728 14.512 13.4051C14.6745 13.3375 14.822 13.2383 14.9459 13.1133L16.6659 11.38L18.3859 13.1133C18.5099 13.2383 18.6574 13.3375 18.8198 13.4051C18.9823 13.4728 19.1566 13.5077 19.3326 13.5077C19.5086 13.5077 19.6829 13.4728 19.8454 13.4051C20.0078 13.3375 20.1553 13.2383 20.2793 13.1133C20.4042 12.9893 20.5034 12.8419 20.5711 12.6794C20.6388 12.5169 20.6737 12.3426 20.6737 12.1666C20.6737 11.9906 20.6388 11.8163 20.5711 11.6539C20.5034 11.4914 20.4042 11.3439 20.2793 11.22L18.5459 9.49996L20.2793 7.77996C20.4042 7.65601 20.5034 7.50854 20.5711 7.34606C20.6388 7.18358 20.6737 7.00931 20.6737 6.83329C20.6737 6.65728 20.6388 6.483 20.5711 6.32052C20.5034 6.15804 20.4042 6.01058 20.2793 5.88663Z" fill="black"/>
</svg>
