<svg width="20" height="15" viewBox="0 0 20 15" fill="none" xmlns="http://www.w3.org/2000/svg">
<path d="M18.9459 1.11333C18.822 0.98836 18.6745 0.889167 18.5121 0.821475C18.3496 0.753784 18.1753 0.718933 17.9993 0.718933C17.8233 0.718933 17.649 0.753784 17.4865 0.821475C17.324 0.889167 17.1766 0.98836 17.0526 1.11333L7.11928 11.06L2.94595 6.87333C2.81725 6.74901 2.66533 6.65126 2.49886 6.58566C2.33238 6.52005 2.15462 6.48788 1.97571 6.49097C1.7968 6.49407 1.62026 6.53237 1.45615 6.60369C1.29205 6.67502 1.1436 6.77797 1.01928 6.90666C0.894964 7.03536 0.797212 7.18728 0.731607 7.35375C0.666001 7.52023 0.633827 7.69799 0.636923 7.8769C0.640018 8.05581 0.678322 8.23235 0.749646 8.39646C0.820971 8.56056 0.92392 8.70901 1.05262 8.83333L6.17262 13.9533C6.29657 14.0783 6.44404 14.1775 6.60651 14.2452C6.76899 14.3129 6.94327 14.3477 7.11928 14.3477C7.2953 14.3477 7.46957 14.3129 7.63205 14.2452C7.79453 14.1775 7.942 14.0783 8.06595 13.9533L18.9459 3.07333C19.0813 2.94847 19.1893 2.79694 19.2632 2.62827C19.3371 2.45961 19.3752 2.27747 19.3752 2.09333C19.3752 1.9092 19.3371 1.72706 19.2632 1.55839C19.1893 1.38972 19.0813 1.23819 18.9459 1.11333Z" fill="black"/>
</svg>
