<svg width="27" height="27" viewBox="0 0 27 27" fill="none" xmlns="http://www.w3.org/2000/svg">
<path d="M26.9995 13.5C26.9994 15.9128 26.765 18.32 26.2995 20.6875C26.2584 20.9159 26.1381 21.1225 25.9598 21.2711C25.7815 21.4197 25.5566 21.5007 25.3245 21.5C25.2569 21.5041 25.1891 21.4956 25.1245 21.475C24.8668 21.4235 24.6398 21.2727 24.4924 21.0552C24.345 20.8377 24.2892 20.5709 24.337 20.3125C24.7764 18.0683 24.9983 15.7869 24.9995 13.5C24.9995 10.5826 23.8406 7.78473 21.7777 5.72183C19.7148 3.65893 16.9169 2.5 13.9995 2.5C11.0821 2.5 8.28422 3.65893 6.22132 5.72183C4.15842 7.78473 2.99949 10.5826 2.99949 13.5C3.00067 14.9771 2.7513 16.4438 2.26199 17.8375C2.1904 18.0318 2.06094 18.1995 1.89107 18.318C1.7212 18.4365 1.51909 18.5 1.31199 18.5C1.20045 18.5024 1.08968 18.4811 0.986992 18.4375C0.862046 18.3955 0.746784 18.3288 0.648003 18.2415C0.549222 18.1542 0.468921 18.048 0.411835 17.9292C0.35475 17.8104 0.322036 17.6813 0.315623 17.5496C0.309209 17.4179 0.329225 17.2863 0.374492 17.1625C0.788989 15.9859 1.00034 14.7474 0.999492 13.5C0.999492 10.0522 2.36913 6.74558 4.8071 4.30761C7.24508 1.86964 10.5517 0.5 13.9995 0.5C17.4473 0.5 20.7539 1.86964 23.1919 4.30761C25.6299 6.74558 26.9995 10.0522 26.9995 13.5ZM9.62449 8.0375C9.83169 7.87174 9.96456 7.63046 9.99386 7.36674C10.0232 7.10301 9.9465 6.83845 9.78074 6.63125C9.61498 6.42405 9.3737 6.29118 9.10998 6.26188C8.84626 6.23258 8.58169 6.30924 8.37449 6.475C7.31935 7.31632 6.46781 8.38504 5.88342 9.60144C5.29903 10.8178 4.99687 12.1505 4.99949 13.5C5.00547 15.8163 4.47043 18.102 3.43699 20.175C3.32322 20.4127 3.30657 20.6853 3.3906 20.9351C3.47462 21.1848 3.65269 21.3919 3.88699 21.5125C4.02892 21.5752 4.18186 21.6092 4.33699 21.6125C4.52306 21.6124 4.7055 21.561 4.86427 21.4639C5.02304 21.3669 5.152 21.228 5.23699 21.0625C6.39963 18.7112 7.00284 16.123 6.99949 13.5C6.99887 12.4508 7.23452 11.415 7.68895 10.4693C8.14338 9.5237 8.80492 8.69253 9.62449 8.0375ZM13.9995 12.5C13.7343 12.5 13.4799 12.6054 13.2924 12.7929C13.1049 12.9804 12.9995 13.2348 12.9995 13.5C13.0038 17.3966 12.0143 21.2299 10.1245 24.6375C9.99911 24.8717 9.97078 25.1458 10.0456 25.4006C10.1204 25.6555 10.2924 25.8708 10.5245 26C10.6689 26.0831 10.8329 26.1263 10.9995 26.125C11.1778 26.1253 11.3529 26.078 11.5068 25.9879C11.6606 25.8978 11.7876 25.7682 11.8745 25.6125C13.9268 21.9055 15.0022 17.7372 14.9995 13.5C14.9995 13.2348 14.8941 12.9804 14.7066 12.7929C14.5191 12.6054 14.2647 12.5 13.9995 12.5ZM13.9995 8.5C12.6744 8.5033 11.4046 9.03114 10.4676 9.96811C9.53064 10.9051 9.00279 12.1749 8.99949 13.5C8.99949 13.7652 9.10485 14.0196 9.29239 14.2071C9.47992 14.3946 9.73428 14.5 9.99949 14.5C10.2647 14.5 10.5191 14.3946 10.7066 14.2071C10.8941 14.0196 10.9995 13.7652 10.9995 13.5C10.9995 12.7044 11.3156 11.9413 11.8782 11.3787C12.4408 10.8161 13.2038 10.5 13.9995 10.5C14.7951 10.5 15.5582 10.8161 16.1208 11.3787C16.6834 11.9413 16.9995 12.7044 16.9995 13.5C17.0094 17.476 16.134 21.4043 14.437 25C14.3801 25.118 14.3473 25.2462 14.3404 25.377C14.3336 25.5078 14.3528 25.6387 14.397 25.762C14.4412 25.8853 14.5095 25.9986 14.5979 26.0952C14.6863 26.1919 14.7931 26.27 14.912 26.325C15.0431 26.3932 15.1892 26.4276 15.337 26.425C15.5278 26.4249 15.7147 26.3708 15.8762 26.2691C16.0376 26.1674 16.167 26.0221 16.2495 25.85C18.0719 21.9886 19.0113 17.7698 18.9995 13.5C18.9995 12.1739 18.4727 10.9021 17.535 9.96447C16.5973 9.02678 15.3256 8.5 13.9995 8.5ZM9.79949 16.525C9.67138 16.4977 9.53911 16.4961 9.41038 16.5204C9.28165 16.5446 9.15904 16.5943 9.04968 16.6664C8.94033 16.7385 8.84642 16.8317 8.77342 16.9405C8.70042 17.0493 8.6498 17.1715 8.62449 17.3C8.21402 19.2939 7.48824 21.2096 6.47449 22.975C6.3421 23.2058 6.30591 23.4795 6.37375 23.7368C6.44158 23.9942 6.608 24.2144 6.83699 24.35C6.99029 24.4336 7.1624 24.4766 7.33699 24.475C7.51219 24.4757 7.6844 24.4297 7.83597 24.3418C7.98754 24.254 8.11301 24.1274 8.19949 23.975C9.33394 22.0284 10.1405 19.9084 10.587 17.7C10.6351 17.4401 10.5796 17.1717 10.4324 16.9522C10.2853 16.7326 10.0581 16.5793 9.79949 16.525ZM13.9995 4.5C13.6232 4.50007 13.2474 4.52513 12.8745 4.575C12.7351 4.57915 12.5982 4.61239 12.4724 4.67259C12.3467 4.73279 12.2349 4.81862 12.1443 4.92457C12.0537 5.03052 11.9862 5.15425 11.9462 5.28781C11.9063 5.42138 11.8946 5.56182 11.9122 5.70014C11.9297 5.83845 11.9759 5.97158 12.0479 6.09097C12.1199 6.21036 12.2161 6.31337 12.3302 6.3934C12.4444 6.47343 12.574 6.5287 12.7108 6.55567C12.8476 6.58264 12.9885 6.58071 13.1245 6.55C13.4148 6.51467 13.7071 6.49797 13.9995 6.5C15.856 6.5 17.6365 7.2375 18.9492 8.55025C20.262 9.86301 20.9995 11.6435 20.9995 13.5C21.0021 14.7954 20.9228 16.0896 20.762 17.375C20.7445 17.5048 20.753 17.6369 20.7871 17.7634C20.8211 17.8899 20.88 18.0084 20.9602 18.1119C21.0405 18.2154 21.1406 18.302 21.2546 18.3665C21.3687 18.4309 21.4944 18.4721 21.6245 18.4875H21.7495C21.9937 18.4867 22.2294 18.3978 22.4131 18.237C22.5969 18.0762 22.7163 17.8544 22.7495 17.6125C22.9141 16.2436 22.9976 14.8662 22.9995 13.4875C22.9929 11.1037 22.0422 8.81968 20.3554 7.13526C18.6686 5.45085 16.3833 4.5033 13.9995 4.5ZM21.237 20.5375C21.1106 20.5037 20.9787 20.4954 20.8491 20.513C20.7194 20.5306 20.5945 20.5738 20.4817 20.6401C20.3689 20.7064 20.2704 20.7945 20.1919 20.8992C20.1134 21.0039 20.0565 21.1231 20.0245 21.25C19.837 21.9625 19.6245 22.675 19.3995 23.375C19.316 23.6253 19.3349 23.8985 19.452 24.135C19.569 24.3715 19.7748 24.5521 20.0245 24.6375C20.1493 24.6785 20.2809 24.6946 20.4118 24.6848C20.5428 24.675 20.6706 24.6395 20.7878 24.5803C20.905 24.5211 21.0095 24.4393 21.0951 24.3398C21.1808 24.2402 21.246 24.1248 21.287 24C21.537 23.2583 21.762 22.5083 21.962 21.75C22.0264 21.4931 21.9862 21.2211 21.8502 20.9938C21.7143 20.7665 21.4938 20.6024 21.237 20.5375Z" fill="black"/>
</svg>
